<svg width="712" height="503" viewBox="0 0 712 503" fill="none" xmlns="http://www.w3.org/2000/svg">
<path d="M355.958 289.143C377.303 289.143 394.606 271.854 394.606 250.528C394.606 229.202 377.303 211.914 355.958 211.914C334.613 211.914 317.309 229.202 317.309 250.528C317.309 271.854 334.613 289.143 355.958 289.143Z" fill="#61DAFB"/>
<path d="M563.494 250.528C563.494 223.067 529.074 197.043 476.302 180.904C488.48 127.165 483.067 84.4107 459.218 70.7225C453.721 67.5117 447.294 65.9908 440.275 65.9908V84.8332C444.165 84.8332 447.294 85.5936 449.916 87.0301C461.417 93.6207 466.407 118.716 462.517 150.993C461.586 158.935 460.064 167.301 458.204 175.835C441.628 171.779 423.53 168.652 404.501 166.625C393.084 150.993 381.244 136.798 369.32 124.377C396.89 98.7749 422.769 84.7487 440.359 84.7487V65.9063C417.102 65.9063 386.657 82.4673 355.873 111.196C325.089 82.6363 294.644 66.2442 271.387 66.2442V85.0867C288.893 85.0867 314.856 99.0284 342.426 124.461C330.587 136.882 318.747 150.993 307.499 166.625C288.386 168.652 270.288 171.779 253.712 175.919C251.767 167.47 250.329 159.273 249.314 151.415C245.339 119.138 250.244 94.0432 261.661 87.368C264.199 85.8471 267.497 85.1712 271.387 85.1712V66.3287C264.283 66.3287 257.856 67.8496 252.274 71.0605C228.51 84.7487 223.182 127.419 235.445 180.989C182.842 197.212 148.591 223.152 148.591 250.528C148.591 277.989 183.011 304.014 235.783 320.152C223.605 373.891 229.017 416.646 252.866 430.334C258.363 433.545 264.791 435.066 271.895 435.066C295.151 435.066 325.597 418.505 356.381 389.776C387.164 418.336 417.61 434.728 440.867 434.728C447.971 434.728 454.398 433.207 459.98 429.996C483.744 416.308 489.072 373.638 476.809 320.068C529.243 303.929 563.494 277.905 563.494 250.528ZM453.383 194.17C450.254 205.07 446.364 216.308 441.966 227.546C438.499 220.786 434.862 214.026 430.887 207.267C426.997 200.507 422.853 193.916 418.709 187.495C430.718 189.269 442.304 191.466 453.383 194.17ZM414.65 284.157C408.053 295.564 401.288 306.38 394.268 316.435C381.667 317.533 368.897 318.124 356.042 318.124C343.272 318.124 330.502 317.533 317.986 316.519C310.966 306.464 304.116 295.733 297.519 284.411C291.092 273.342 285.257 262.104 279.929 250.782C285.172 239.459 291.092 228.137 297.435 217.068C304.031 205.661 310.797 194.846 317.816 184.791C330.417 183.693 343.188 183.101 356.042 183.101C368.812 183.101 381.583 183.693 394.099 184.707C401.118 194.761 407.969 205.492 414.565 216.815C420.993 227.884 426.828 239.121 432.156 250.444C426.828 261.766 420.992 273.088 414.65 284.157ZM441.966 273.173C446.533 284.495 450.423 295.818 453.637 306.802C442.558 309.506 430.887 311.787 418.794 313.562C422.938 307.056 427.082 300.381 430.972 293.536C434.862 286.777 438.499 279.933 441.966 273.173ZM356.211 363.329C348.346 355.218 340.481 346.177 332.701 336.291C340.312 336.629 348.093 336.882 355.958 336.882C363.907 336.882 371.772 336.713 379.468 336.291C371.857 346.177 363.992 355.218 356.211 363.329ZM293.291 313.562C281.282 311.787 269.696 309.59 258.617 306.887C261.746 295.987 265.636 284.749 270.034 273.511C273.501 280.271 277.138 287.03 281.113 293.79C285.088 300.549 289.147 307.14 293.291 313.562ZM355.789 137.727C363.654 145.839 371.519 154.88 379.299 164.766C371.688 164.428 363.907 164.174 356.042 164.174C348.093 164.174 340.228 164.343 332.532 164.766C340.143 154.88 348.008 145.839 355.789 137.727ZM293.206 187.495C289.062 194.001 284.918 200.676 281.028 207.52C277.138 214.28 273.501 221.039 270.034 227.799C265.467 216.477 261.577 205.154 258.363 194.17C269.442 191.551 281.113 189.269 293.206 187.495ZM216.67 293.283C186.732 280.524 167.365 263.794 167.365 250.528C167.365 237.263 186.732 220.448 216.67 207.774C223.943 204.647 231.893 201.859 240.096 199.24C244.917 215.801 251.259 233.038 259.124 250.697C251.344 268.272 245.086 285.425 240.35 301.901C231.977 299.282 224.028 296.409 216.67 293.283ZM262.169 414.027C250.667 407.436 245.678 382.341 249.568 350.064C250.498 342.121 252.02 333.756 253.881 325.222C270.457 329.278 288.555 332.404 307.583 334.432C319 350.064 330.84 364.259 342.765 376.68C315.195 402.282 289.316 416.308 271.725 416.308C267.92 416.223 264.706 415.463 262.169 414.027ZM462.77 349.641C466.745 381.918 461.84 407.013 450.423 413.689C447.886 415.209 444.588 415.885 440.697 415.885C423.191 415.885 397.228 401.944 369.658 376.511C381.498 364.09 393.338 349.979 404.586 334.348C423.699 332.32 441.797 329.193 458.373 325.053C460.318 333.587 461.84 341.783 462.77 349.641ZM495.33 293.283C488.057 296.409 480.107 299.198 471.904 301.817C467.083 285.256 460.741 268.019 452.876 250.359C460.656 232.784 466.914 215.632 471.65 199.155C480.023 201.775 487.972 204.647 495.415 207.774C525.353 220.532 544.719 237.263 544.719 250.528C544.635 263.794 525.268 280.609 495.33 293.283Z" fill="#61DAFB"/>
<path d="M563.494 250.528C563.494 223.067 529.074 197.043 476.302 180.904C488.48 127.165 483.067 84.4107 459.218 70.7225C453.721 67.5117 447.294 65.9908 440.275 65.9908V84.8332C444.165 84.8332 447.294 85.5936 449.916 87.0301C461.417 93.6207 466.407 118.716 462.517 150.993C461.586 158.935 460.064 167.301 458.204 175.835C441.628 171.779 423.53 168.652 404.501 166.625C393.084 150.993 381.244 136.798 369.32 124.377C396.89 98.7749 422.769 84.7487 440.359 84.7487V65.9063C417.102 65.9063 386.657 82.4673 355.873 111.196C325.089 82.6363 294.644 66.2442 271.387 66.2442V85.0867C288.893 85.0867 314.856 99.0284 342.426 124.461C330.587 136.882 318.747 150.993 307.499 166.625C288.386 168.652 270.288 171.779 253.712 175.919C251.767 167.47 250.329 159.273 249.314 151.415C245.339 119.138 250.244 94.0432 261.661 87.368C264.199 85.8471 267.497 85.1712 271.387 85.1712V66.3287C264.283 66.3287 257.856 67.8496 252.274 71.0605C228.51 84.7487 223.182 127.419 235.445 180.989C182.842 197.212 148.591 223.152 148.591 250.528C148.591 277.989 183.011 304.014 235.783 320.152C223.605 373.891 229.017 416.646 252.866 430.334C258.363 433.545 264.791 435.066 271.895 435.066C295.151 435.066 325.597 418.505 356.381 389.776C387.164 418.336 417.61 434.728 440.867 434.728C447.971 434.728 454.398 433.207 459.98 429.996C483.744 416.308 489.072 373.638 476.809 320.068C529.243 303.929 563.494 277.905 563.494 250.528ZM453.383 194.17C450.254 205.07 446.364 216.308 441.966 227.546C438.499 220.786 434.862 214.026 430.887 207.267C426.997 200.507 422.853 193.916 418.709 187.495C430.718 189.269 442.304 191.466 453.383 194.17ZM414.65 284.157C408.053 295.564 401.288 306.38 394.268 316.435C381.667 317.533 368.897 318.124 356.042 318.124C343.272 318.124 330.502 317.533 317.986 316.519C310.966 306.464 304.116 295.733 297.519 284.411C291.092 273.342 285.257 262.104 279.929 250.782C285.172 239.459 291.092 228.137 297.435 217.068C304.031 205.661 310.797 194.846 317.816 184.791C330.417 183.693 343.188 183.101 356.042 183.101C368.812 183.101 381.583 183.693 394.099 184.707C401.118 194.761 407.969 205.492 414.565 216.815C420.993 227.884 426.828 239.121 432.156 250.444C426.828 261.766 420.992 273.088 414.65 284.157ZM441.966 273.173C446.533 284.495 450.423 295.818 453.637 306.802C442.558 309.506 430.887 311.787 418.794 313.562C422.938 307.056 427.082 300.381 430.972 293.536C434.862 286.777 438.499 279.933 441.966 273.173ZM356.211 363.329C348.346 355.218 340.481 346.177 332.701 336.291C340.312 336.629 348.093 336.882 355.958 336.882C363.907 336.882 371.772 336.713 379.468 336.291C371.857 346.177 363.992 355.218 356.211 363.329ZM293.291 313.562C281.282 311.787 269.696 309.59 258.617 306.887C261.746 295.987 265.636 284.749 270.034 273.511C273.501 280.271 277.138 287.03 281.113 293.79C285.088 300.549 289.147 307.14 293.291 313.562ZM355.789 137.727C363.654 145.839 371.519 154.88 379.299 164.766C371.688 164.428 363.907 164.174 356.042 164.174C348.093 164.174 340.228 164.343 332.532 164.766C340.143 154.88 348.008 145.839 355.789 137.727ZM293.206 187.495C289.062 194.001 284.918 200.676 281.028 207.52C277.138 214.28 273.501 221.039 270.034 227.799C265.467 216.477 261.577 205.154 258.363 194.17C269.442 191.551 281.113 189.269 293.206 187.495ZM216.67 293.283C186.732 280.524 167.365 263.794 167.365 250.528C167.365 237.263 186.732 220.448 216.67 207.774C223.943 204.647 231.893 201.859 240.096 199.24C244.917 215.801 251.259 233.038 259.124 250.697C251.344 268.272 245.086 285.425 240.35 301.901C231.977 299.282 224.028 296.409 216.67 293.283ZM262.169 414.027C250.667 407.436 245.678 382.341 249.568 350.064C250.498 342.121 252.02 333.756 253.881 325.222C270.457 329.278 288.555 332.404 307.583 334.432C319 350.064 330.84 364.259 342.765 376.68C315.195 402.282 289.316 416.308 271.725 416.308C267.92 416.223 264.706 415.463 262.169 414.027ZM462.77 349.641C466.745 381.918 461.84 407.013 450.423 413.689C447.886 415.209 444.588 415.885 440.697 415.885C423.191 415.885 397.228 401.944 369.658 376.511C381.498 364.09 393.338 349.979 404.586 334.348C423.699 332.32 441.797 329.193 458.373 325.053C460.318 333.587 461.84 341.783 462.77 349.641ZM495.33 293.283C488.057 296.409 480.107 299.198 471.904 301.817C467.083 285.256 460.741 268.019 452.876 250.359C460.656 232.784 466.914 215.632 471.65 199.155C480.023 201.775 487.972 204.647 495.415 207.774C525.353 220.532 544.719 237.263 544.719 250.528C544.635 263.794 525.268 280.609 495.33 293.283Z" fill="url(#paint0_linear)"/>
<path d="M563.494 250.951C563.494 223.49 529.074 197.465 476.302 181.327C488.48 127.588 483.067 84.8332 459.218 71.145C453.721 67.9341 447.294 66.4132 440.275 66.4132V85.2557C444.165 85.2557 447.294 86.0161 449.916 87.4525C461.417 94.0432 466.407 119.138 462.517 151.415C461.586 159.358 460.064 167.723 458.204 176.257C441.628 172.201 423.53 169.075 404.501 167.047C393.084 151.415 381.244 137.22 369.32 124.799C396.89 99.1974 422.769 85.1712 440.359 85.1712V66.3287C417.102 66.3287 386.657 82.8898 355.873 111.618C325.089 83.0588 294.644 66.6667 271.387 66.6667V85.5092C288.893 85.5092 314.856 99.4509 342.426 124.884C330.587 137.305 318.747 151.415 307.499 167.047C288.386 169.075 270.288 172.201 253.712 176.342C251.767 167.892 250.329 159.696 249.314 151.838C245.339 119.561 250.244 94.4656 261.661 87.7905C264.199 86.2696 267.497 85.5937 271.387 85.5937V66.7512C264.283 66.7512 257.856 68.2721 252.274 71.4829C228.51 85.1712 223.182 127.841 235.445 181.411C182.842 197.634 148.591 223.574 148.591 250.951C148.591 278.412 183.011 304.436 235.783 320.575C223.605 374.314 229.017 417.068 252.866 430.757C258.363 433.967 264.791 435.488 271.895 435.488C295.151 435.488 325.597 418.927 356.381 390.199C387.164 418.758 417.61 435.15 440.867 435.15C447.971 435.15 454.398 433.629 459.98 430.419C483.744 416.73 489.072 374.06 476.809 320.49C529.243 304.352 563.494 278.327 563.494 250.951ZM453.383 194.592C450.254 205.492 446.364 216.73 441.966 227.968C438.499 221.208 434.862 214.449 430.887 207.689C426.997 200.93 422.853 194.339 418.709 187.917C430.718 189.692 442.304 191.889 453.383 194.592ZM414.65 284.58C408.053 295.987 401.288 306.802 394.268 316.857C381.667 317.955 368.897 318.547 356.042 318.547C343.272 318.547 330.502 317.955 317.986 316.942C310.966 306.887 304.116 296.156 297.519 284.833C291.092 273.765 285.257 262.527 279.929 251.204C285.172 239.882 291.092 228.56 297.435 217.491C304.031 206.084 310.797 195.268 317.816 185.214C330.417 184.115 343.188 183.524 356.042 183.524C368.812 183.524 381.583 184.115 394.099 185.129C401.118 195.184 407.969 205.915 414.565 217.237C420.992 228.306 426.828 239.544 432.156 250.866C426.828 262.189 420.993 273.511 414.65 284.58ZM441.966 273.595C446.533 284.918 450.423 296.24 453.637 307.225C442.558 309.928 430.887 312.21 418.794 313.984C422.938 307.478 427.082 300.803 430.972 293.959C434.862 287.199 438.499 280.355 441.966 273.595ZM356.211 363.752C348.346 355.64 340.481 346.599 332.701 336.713C340.312 337.051 348.093 337.305 355.958 337.305C363.907 337.305 371.772 337.136 379.468 336.713C371.857 346.599 363.992 355.64 356.211 363.752ZM293.291 313.984C281.282 312.21 269.696 310.013 258.617 307.309C261.746 296.409 265.636 285.171 270.034 273.933C273.501 280.693 277.138 287.453 281.113 294.212C285.088 300.972 289.147 307.563 293.291 313.984ZM355.789 138.15C363.654 146.261 371.519 155.302 379.299 165.188C371.688 164.85 363.907 164.597 356.042 164.597C348.093 164.597 340.228 164.766 332.532 165.188C340.143 155.302 348.008 146.261 355.789 138.15ZM293.206 187.917C289.062 194.423 284.918 201.099 281.028 207.943C277.138 214.702 273.501 221.462 270.034 228.222C265.467 216.899 261.577 205.577 258.363 194.592C269.442 191.973 281.113 189.692 293.206 187.917ZM216.67 293.705C186.732 280.947 167.365 264.217 167.365 250.951C167.365 237.685 186.732 220.87 216.67 208.196C223.943 205.07 231.893 202.282 240.096 199.662C244.917 216.223 251.259 233.46 259.124 251.12C251.344 268.695 245.086 285.847 240.35 302.324C231.977 299.705 224.028 296.832 216.67 293.705ZM262.169 414.449C250.667 407.858 245.678 382.763 249.568 350.486C250.498 342.544 252.02 334.179 253.881 325.645C270.457 329.7 288.555 332.827 307.583 334.855C319 350.486 330.84 364.681 342.765 377.102C315.195 402.704 289.316 416.73 271.725 416.73C267.92 416.646 264.706 415.885 262.169 414.449ZM462.77 350.064C466.745 382.341 461.84 407.436 450.423 414.111C447.886 415.632 444.588 416.308 440.697 416.308C423.191 416.308 397.228 402.366 369.658 376.933C381.498 364.512 393.338 350.402 404.586 334.77C423.699 332.742 441.797 329.616 458.373 325.476C460.318 334.01 461.84 342.206 462.77 350.064ZM495.33 293.705C488.057 296.832 480.107 299.62 471.904 302.239C467.083 285.678 460.741 268.441 452.876 250.782C460.656 233.207 466.914 216.054 471.65 199.578C480.023 202.197 487.972 205.07 495.415 208.196C525.353 220.955 544.719 237.685 544.719 250.951C544.635 264.217 525.268 281.031 495.33 293.705Z" fill="#61DAFB"/>
<path d="M563.494 250.951C563.494 223.49 529.074 197.465 476.302 181.327C488.48 127.588 483.067 84.8332 459.218 71.145C453.721 67.9341 447.294 66.4132 440.275 66.4132V85.2557C444.165 85.2557 447.294 86.0161 449.916 87.4525C461.417 94.0432 466.407 119.138 462.517 151.415C461.586 159.358 460.064 167.723 458.204 176.257C441.628 172.201 423.53 169.075 404.501 167.047C393.084 151.415 381.244 137.22 369.32 124.799C396.89 99.1974 422.769 85.1712 440.359 85.1712V66.3287C417.102 66.3287 386.657 82.8898 355.873 111.618C325.089 83.0588 294.644 66.6667 271.387 66.6667V85.5092C288.893 85.5092 314.856 99.4509 342.426 124.884C330.587 137.305 318.747 151.415 307.499 167.047C288.386 169.075 270.288 172.201 253.712 176.342C251.767 167.892 250.329 159.696 249.314 151.838C245.339 119.561 250.244 94.4656 261.661 87.7905C264.199 86.2696 267.497 85.5937 271.387 85.5937V66.7512C264.283 66.7512 257.856 68.2721 252.274 71.4829C228.51 85.1712 223.182 127.841 235.445 181.411C182.842 197.634 148.591 223.574 148.591 250.951C148.591 278.412 183.011 304.436 235.783 320.575C223.605 374.314 229.017 417.068 252.866 430.757C258.363 433.967 264.791 435.488 271.895 435.488C295.151 435.488 325.597 418.927 356.381 390.199C387.164 418.758 417.61 435.15 440.867 435.15C447.971 435.15 454.398 433.629 459.98 430.419C483.744 416.73 489.072 374.06 476.809 320.49C529.243 304.352 563.494 278.327 563.494 250.951ZM453.383 194.592C450.254 205.492 446.364 216.73 441.966 227.968C438.499 221.208 434.862 214.449 430.887 207.689C426.997 200.93 422.853 194.339 418.709 187.917C430.718 189.692 442.304 191.889 453.383 194.592ZM414.65 284.58C408.053 295.987 401.288 306.802 394.268 316.857C381.667 317.955 368.897 318.547 356.042 318.547C343.272 318.547 330.502 317.955 317.986 316.942C310.966 306.887 304.116 296.156 297.519 284.833C291.092 273.765 285.257 262.527 279.929 251.204C285.172 239.882 291.092 228.56 297.435 217.491C304.031 206.084 310.797 195.268 317.816 185.214C330.417 184.115 343.188 183.524 356.042 183.524C368.812 183.524 381.583 184.115 394.099 185.129C401.118 195.184 407.969 205.915 414.565 217.237C420.992 228.306 426.828 239.544 432.156 250.866C426.828 262.189 420.993 273.511 414.65 284.58ZM441.966 273.595C446.533 284.918 450.423 296.24 453.637 307.225C442.558 309.928 430.887 312.21 418.794 313.984C422.938 307.478 427.082 300.803 430.972 293.959C434.862 287.199 438.499 280.355 441.966 273.595ZM356.211 363.752C348.346 355.64 340.481 346.599 332.701 336.713C340.312 337.051 348.093 337.305 355.958 337.305C363.907 337.305 371.772 337.136 379.468 336.713C371.857 346.599 363.992 355.64 356.211 363.752ZM293.291 313.984C281.282 312.21 269.696 310.013 258.617 307.309C261.746 296.409 265.636 285.171 270.034 273.933C273.501 280.693 277.138 287.453 281.113 294.212C285.088 300.972 289.147 307.563 293.291 313.984ZM355.789 138.15C363.654 146.261 371.519 155.302 379.299 165.188C371.688 164.85 363.907 164.597 356.042 164.597C348.093 164.597 340.228 164.766 332.532 165.188C340.143 155.302 348.008 146.261 355.789 138.15ZM293.206 187.917C289.062 194.423 284.918 201.099 281.028 207.943C277.138 214.702 273.501 221.462 270.034 228.222C265.467 216.899 261.577 205.577 258.363 194.592C269.442 191.973 281.113 189.692 293.206 187.917ZM216.67 293.705C186.732 280.947 167.365 264.217 167.365 250.951C167.365 237.685 186.732 220.87 216.67 208.196C223.943 205.07 231.893 202.282 240.096 199.662C244.917 216.223 251.259 233.46 259.124 251.12C251.344 268.695 245.086 285.847 240.35 302.324C231.977 299.705 224.028 296.832 216.67 293.705ZM262.169 414.449C250.667 407.858 245.678 382.763 249.568 350.486C250.498 342.544 252.02 334.179 253.881 325.645C270.457 329.7 288.555 332.827 307.583 334.855C319 350.486 330.84 364.681 342.765 377.102C315.195 402.704 289.316 416.73 271.725 416.73C267.92 416.646 264.706 415.885 262.169 414.449ZM462.77 350.064C466.745 382.341 461.84 407.436 450.423 414.111C447.886 415.632 444.588 416.308 440.697 416.308C423.191 416.308 397.228 402.366 369.658 376.933C381.498 364.512 393.338 350.402 404.586 334.77C423.699 332.742 441.797 329.616 458.373 325.476C460.318 334.01 461.84 342.206 462.77 350.064ZM495.33 293.705C488.057 296.832 480.107 299.62 471.904 302.239C467.083 285.678 460.741 268.441 452.876 250.782C460.656 233.207 466.914 216.054 471.65 199.578C480.023 202.197 487.972 205.07 495.415 208.196C525.353 220.955 544.719 237.685 544.719 250.951C544.635 264.217 525.268 281.031 495.33 293.705Z" fill="url(#paint1_linear)"/>
<path d="M449.416 38.0736L311.026 49.6003C308.751 49.7897 306.828 51.6871 306.348 54.2132L276.545 211.217C275.844 214.915 278.469 218.217 281.791 217.816L320.522 213.13C324.146 212.693 326.832 216.615 325.569 220.505L306.061 280.642C304.748 284.689 307.702 288.705 311.446 287.962L335.628 283.156C339.377 282.412 342.333 286.439 341.01 290.488L310.162 384.922C308.232 390.829 314.892 395.101 318.565 390.312L321.019 387.113L464.191 154.508C466.589 150.613 464.072 145.457 459.935 145.788L420.293 148.963C416.567 149.261 414.009 145.024 415.577 141.153L454.146 45.8823C455.715 42.0043 453.147 37.763 449.416 38.0736Z" fill="url(#paint2_linear)"/>
<defs>
<linearGradient id="paint0_linear" x1="356.042" y1="65.9063" x2="356.042" y2="435.488" gradientUnits="userSpaceOnUse">
<stop stop-color="#5A91C4"/>
<stop offset="0.34375" stop-color="#2C98E6"/>
<stop offset="1" stop-color="#9CB0C1" stop-opacity="0"/>
</linearGradient>
<linearGradient id="paint1_linear" x1="356.042" y1="65.9063" x2="356.042" y2="435.488" gradientUnits="userSpaceOnUse">
<stop stop-color="#5A91C4"/>
<stop offset="0.34375" stop-color="#2C98E6"/>
<stop offset="1" stop-color="#9CB0C1" stop-opacity="0"/>
</linearGradient>
<linearGradient id="paint2_linear" x1="351.325" y1="32.9596" x2="360.471" y2="355.848" gradientUnits="userSpaceOnUse">
<stop stop-color="#EEFF83"/>
<stop offset="0.0001" stop-color="#772727"/>
<stop offset="0.328125" stop-color="#CF1C1C"/>
<stop offset="1" stop-color="#FF7A00"/>
</linearGradient>
</defs>
</svg>
